<svg width="800px" height="800px" viewBox="0 0 128 128" id="Layer_1" version="1.1" xml:space="preserve" xmlns="http://www.w3.org/2000/svg" xmlns:xlink="http://www.w3.org/1999/xlink">
  <style type="text/css">/* https://www.svgrepo.com/svg/429243/camera-image-media */
	.st0{fill:#333;} /* 581166 */
	.st1{fill:#E83A3A;}
	.st2{fill:#464B55;} /* #e07f3b #FF5855 */
	.st3{opacity:0.5;}
	.st4{fill:#ccc7c5;} /* f6e38c #FFDA8E*/
	.st5{fill:#FFFFFF;}
	.st6{fill:#EABA65;}
	.st7{fill:#E6E6E6;}
	.st8{fill:#444;} /* 460A54 */
	.st9{fill:none;}
	.st10{fill:none;stroke:#581166;stroke-width:2;stroke-linecap:round;stroke-linejoin:round;stroke-miterlimit:10;}
	.st11{fill:#F2F2F2;}
  </style>
  <g>
    <g>
      <g>
        <g>
          <path class="st2" d="M79.9,58.8H52.6c-10.3,0-18.8-3-18.8-6.7c0,0,8.5-24.7,18.8-24.7h27.4c10.3,0,18.8,24.7,18.8,24.7      C98.7,55.8,90.3,58.8,79.9,58.8z"/>
        </g>
      </g>
    </g>
    <g>
      <g>
        <g>
          <path class="st0" d="M79.9,60.7H52.6c-10.3,0-20.7-2.9-20.7-8.6c0-0.2,0-0.4,0.1-0.6c0.9-2.7,9.2-26,20.6-26h27.4      c11.3,0,19.6,23.3,20.6,26c0.1,0.2,0.1,0.4,0.1,0.6C100.6,57.7,90.2,60.7,79.9,60.7z M35.7,52.3c0.5,1.7,6.8,4.6,16.9,4.6h27.4      c10.1,0,16.4-2.9,16.9-4.6c-3.2-9.1-10.4-23-16.9-23H52.6C46.1,29.3,38.9,43.2,35.7,52.3z"/>
        </g>
      </g>
    </g>
    <g>
      <g>
        <g>
          <path class="st4" d="M114.2,43.2v5.3H16.4v-5.3c0-3.7,3-6.7,6.7-6.7h84.4C111.2,36.5,114.2,39.5,114.2,43.2z"/>
        </g>
      </g>
    </g>
    <g>
      <g>
        <g>
          <path class="st4" d="M114.2,87.8v5.3c0,3.7-3,6.7-6.7,6.7H23.1c-3.7,0-6.7-3-6.7-6.7v-5.3H114.2z"/>
        </g>
      </g>
    </g>
    <g>
      <g>
        <g>
          <rect class="st2" height="39.3" width="97.8" x="16.4" y="48.5"/>
        </g>
      </g>
    </g>
    <g>
      <g>
        <g>
          <path class="st0" d="M114.2,50.4H16.4c-1,0-1.9-0.8-1.9-1.9v-5.3c0-4.7,3.8-8.6,8.6-8.6h84.4c4.7,0,8.6,3.8,8.6,8.6v5.3      C116.1,49.5,115.2,50.4,114.2,50.4z M18.3,46.6h94v-3.4c0-2.7-2.2-4.8-4.8-4.8H23.1c-2.7,0-4.8,2.2-4.8,4.8V46.6z"/>
        </g>
      </g>
    </g>
    <g>
      <g>
        <g>
          <path class="st0" d="M107.5,101.7H23.1c-4.7,0-8.6-3.8-8.6-8.6v-5.3c0-1,0.8-1.9,1.9-1.9h97.8c1,0,1.9,0.8,1.9,1.9v5.3      C116.1,97.8,112.2,101.7,107.5,101.7z M18.3,89.7v3.4c0,2.7,2.2,4.8,4.8,4.8h84.4c2.7,0,4.8-2.2,4.8-4.8v-3.4H18.3z"/>
        </g>
      </g>
    </g>
    <g>
      <g>
        <g>
          <path class="st0" d="M106.7,101.7H23.9c-5.2,0-9.4-4.2-9.4-9.4V44c0-5.2,4.2-9.4,9.4-9.4h82.8c5.2,0,9.4,4.2,9.4,9.4v48.3      C116.1,97.5,111.9,101.7,106.7,101.7z M23.9,38.4c-3.1,0-5.6,2.5-5.6,5.6v48.3c0,3.1,2.5,5.6,5.6,5.6h82.8      c3.1,0,5.6-2.5,5.6-5.6V44c0-3.1-2.5-5.6-5.6-5.6H23.9z"/>
        </g>
      </g>
    </g>
    <g class="st3">
      <g>
        <g>
          <ellipse class="st0" cx="65.3" cy="75.6" rx="24.6" ry="22.1"/>
        </g>
      </g>
    </g>
    <g>
      <g>
        <g>
          <g>
            <ellipse class="st2" cx="65.3" cy="68.6" rx="24.6" ry="25.5"/>
          </g>
        </g>
      </g>
      <g>
        <g>
          <g>
            <path class="st0" d="M65.3,96c-14.6,0-26.5-12.3-26.5-27.4c0-15.1,11.9-27.4,26.5-27.4s26.5,12.3,26.5,27.4       C91.8,83.7,79.9,96,65.3,96z M65.3,45c-12.5,0-22.7,10.6-22.7,23.6c0,13,10.2,23.6,22.7,23.6c12.5,0,22.7-10.6,22.7-23.6       C88.1,55.6,77.9,45,65.3,45z"/>
          </g>
        </g>
      </g>
      <g>
        <g>
          <g>
            <ellipse class="st5" cx="65.3" cy="68.6" rx="16.9" ry="17.6"/>
          </g>
        </g>
      </g>
      <g>
        <g>
          <g>
            <path class="st0" d="M65.3,88c-10.4,0-18.8-8.7-18.8-19.4s8.4-19.4,18.8-19.4s18.8,8.7,18.8,19.4S75.7,88,65.3,88z M65.3,52.9       c-8.3,0-15.1,7-15.1,15.7S57,84.3,65.3,84.3c8.3,0,15.1-7,15.1-15.7S73.6,52.9,65.3,52.9z"/>
          </g>
        </g>
      </g>
    </g>
    <g>
      <g>
        <g>
          <path class="st0" d="M108.3,45h-9.6c-1,0-1.9-0.8-1.9-1.9c0-1,0.8-1.9,1.9-1.9h9.6c1,0,1.9,0.8,1.9,1.9      C110.2,44.1,109.3,45,108.3,45z"/>
        </g>
      </g>
    </g>
    <g>
      <g>
        <g>
          <circle class="st8" cx="26.9" cy="41.9" r="2.7"/>
        </g>
      </g>
    </g>
    <g>
      <g>
        <g>
          <path class="st0" d="M76.3,66.8c-0.9,0-1.7-0.6-1.8-1.5c-1.1-5.4-5-5.5-5.1-5.5c0,0,0,0,0,0c-1,0-1.9-0.8-1.9-1.9      c0-1,0.8-1.9,1.9-1.9c0,0,0,0,0,0c2.4,0,7.4,1.8,8.7,8.5c0.2,1-0.4,2-1.5,2.2C76.6,66.8,76.4,66.8,76.3,66.8z"/>
        </g>
      </g>
    </g>
  </g>
</svg>
